<mxfile host="65bd71144e">
    <diagram id="-LG3VaJjhduPjDvOLGJU" name="Page-1">
        <mxGraphModel dx="884" dy="317" grid="1" gridSize="10" guides="1" tooltips="1" connect="1" arrows="1" fold="1" page="1" pageScale="1" pageWidth="827" pageHeight="1169" math="0" shadow="0">
            <root>
                <mxCell id="0"/>
                <mxCell id="1" parent="0"/>
                <mxCell id="7" value="" style="edgeStyle=none;html=1;" parent="1" source="2" target="4" edge="1">
                    <mxGeometry relative="1" as="geometry"/>
                </mxCell>
                <mxCell id="2" value="WEB BROWSER&lt;br&gt;2nd integration" style="whiteSpace=wrap;html=1;" parent="1" vertex="1">
                    <mxGeometry x="67" y="490" width="120" height="60" as="geometry"/>
                </mxCell>
                <mxCell id="8" style="edgeStyle=none;html=1;" parent="1" source="4" target="5" edge="1">
                    <mxGeometry relative="1" as="geometry"/>
                </mxCell>
                <mxCell id="15" style="edgeStyle=none;html=1;entryX=0;entryY=0.5;entryDx=0;entryDy=0;" parent="1" source="4" target="13" edge="1">
                    <mxGeometry relative="1" as="geometry"/>
                </mxCell>
                <mxCell id="4" value="NGINX ROUTING&lt;br&gt;&lt;div style=&quot;background-color: rgb(30 , 30 , 30) ; font-family: &amp;#34;menlo&amp;#34; , &amp;#34;monaco&amp;#34; , &amp;#34;courier new&amp;#34; , monospace ; line-height: 18px&quot;&gt;&lt;font color=&quot;#ce9178&quot;&gt;80&lt;/font&gt;&lt;/div&gt;" style="whiteSpace=wrap;html=1;" parent="1" vertex="1">
                    <mxGeometry x="237" y="490" width="120" height="40" as="geometry"/>
                </mxCell>
                <mxCell id="12" value="" style="edgeStyle=none;html=1;" parent="1" source="5" target="6" edge="1">
                    <mxGeometry relative="1" as="geometry"/>
                </mxCell>
                <mxCell id="5" value="NGINX SERVING REMIX FILES IN NODE ALPINE IMAGE&lt;br&gt;&lt;font color=&quot;#ce9178&quot; face=&quot;Menlo, Monaco, Courier New, monospace&quot;&gt;&lt;span style=&quot;background-color: rgb(30 , 30 , 30)&quot;&gt;3000&lt;/span&gt;&lt;/font&gt;&amp;nbsp;" style="whiteSpace=wrap;html=1;" parent="1" vertex="1">
                    <mxGeometry x="401" y="390" width="110" height="90" as="geometry"/>
                </mxCell>
                <mxCell id="6" value="MSSQL&lt;br&gt;&lt;div style=&quot;color: rgb(212 , 212 , 212) ; background-color: rgb(30 , 30 , 30) ; font-family: &amp;#34;menlo&amp;#34; , &amp;#34;monaco&amp;#34; , &amp;#34;courier new&amp;#34; , monospace ; line-height: 18px&quot;&gt;&lt;span style=&quot;color: #ce9178&quot;&gt;1433&lt;/span&gt;&lt;/div&gt;" style="whiteSpace=wrap;html=1;" parent="1" vertex="1">
                    <mxGeometry x="637" y="405" width="120" height="60" as="geometry"/>
                </mxCell>
                <mxCell id="13" value="REDIS&lt;br&gt;&lt;font color=&quot;#ce9178&quot; face=&quot;Menlo, Monaco, Courier New, monospace&quot;&gt;&lt;span style=&quot;background-color: rgb(30 , 30 , 30)&quot;&gt;5000&lt;/span&gt;&lt;/font&gt;&amp;nbsp;" style="whiteSpace=wrap;html=1;" parent="1" vertex="1">
                    <mxGeometry x="397" y="550" width="114" height="90" as="geometry"/>
                </mxCell>
                <mxCell id="27" value="" style="edgeStyle=none;html=1;entryX=0;entryY=0.5;entryDx=0;entryDy=0;" parent="1" source="28" target="35" edge="1">
                    <mxGeometry relative="1" as="geometry">
                        <mxPoint x="240" y="65" as="targetPoint"/>
                    </mxGeometry>
                </mxCell>
                <mxCell id="28" value="WEB BROWSER&lt;br&gt;1st integration" style="whiteSpace=wrap;html=1;" parent="1" vertex="1">
                    <mxGeometry x="67" y="120" width="120" height="60" as="geometry"/>
                </mxCell>
                <mxCell id="32" value="" style="edgeStyle=none;html=1;" parent="1" source="33" target="34" edge="1">
                    <mxGeometry relative="1" as="geometry"/>
                </mxCell>
                <mxCell id="33" value="EXPRESS SERVING REMIX FILES IN NODE ALPINE IMAGE&lt;br&gt;&lt;font color=&quot;#ce9178&quot; face=&quot;Menlo, Monaco, Courier New, monospace&quot;&gt;&lt;span style=&quot;background-color: rgb(30 , 30 , 30)&quot;&gt;3000&lt;/span&gt;&lt;/font&gt;&amp;nbsp;" style="whiteSpace=wrap;html=1;" parent="1" vertex="1">
                    <mxGeometry x="401" y="20" width="110" height="90" as="geometry"/>
                </mxCell>
                <mxCell id="34" value="MSSQL&lt;br&gt;&lt;div style=&quot;color: rgb(212 , 212 , 212) ; background-color: rgb(30 , 30 , 30) ; font-family: &amp;#34;menlo&amp;#34; , &amp;#34;monaco&amp;#34; , &amp;#34;courier new&amp;#34; , monospace ; line-height: 18px&quot;&gt;&lt;span style=&quot;color: #ce9178&quot;&gt;1433&lt;/span&gt;&lt;/div&gt;" style="whiteSpace=wrap;html=1;" parent="1" vertex="1">
                    <mxGeometry x="637" y="35" width="120" height="60" as="geometry"/>
                </mxCell>
                <mxCell id="36" value="" style="edgeStyle=none;html=1;" edge="1" parent="1" source="35" target="33">
                    <mxGeometry relative="1" as="geometry"/>
                </mxCell>
                <mxCell id="35" value="NGINX PROXY PASS&lt;br&gt;http://localhost:8087 looks at express image" style="whiteSpace=wrap;html=1;" vertex="1" parent="1">
                    <mxGeometry x="237" y="20" width="110" height="90" as="geometry"/>
                </mxCell>
            </root>
        </mxGraphModel>
    </diagram>
</mxfile>